<?xml version="1.0" encoding="UTF-8" standalone="no"?>
<!DOCTYPE svg PUBLIC "-//W3C//DTD SVG 1.1//EN" "http://www.w3.org/Graphics/SVG/1.1/DTD/svg11.dtd">
<svg width="100%" height="100%" viewBox="0 0 590 344" version="1.1" xmlns="http://www.w3.org/2000/svg" xmlns:xlink="http://www.w3.org/1999/xlink" xml:space="preserve" xmlns:serif="http://www.serif.com/" style="fill-rule:evenodd;clip-rule:evenodd;stroke-linecap:round;stroke-linejoin:round;stroke-miterlimit:10;">
    <g transform="matrix(1,0,0,1,-221,-320)">
        <path id="XMLID_3_" d="M791,663.7L241,663.7C230,663.7 221,654.7 221,643.7C221,632.7 230,623.7 241,623.7L791,623.7C802,623.7 811,632.7 811,643.7C811,654.7 802,663.7 791,663.7Z" style="fill:rgb(28,28,28);fill-opacity:0.23;fill-rule:nonzero;"/>
        <path id="XMLID_21_" d="M556.5,599L286.5,599C281,599 276.5,594.5 276.5,589L276.5,391C276.5,385.5 281,381 286.5,381L556.5,381C562,381 566.5,385.5 566.5,391L566.5,589C566.5,594.5 562,599 556.5,599Z" style="fill:rgb(180,170,193);fill-rule:nonzero;"/>
        <path id="XMLID_38_" d="M282.5,582.9L282.5,391C282.5,388.8 284.3,387 286.5,387L556.5,387C558.7,387 560.5,388.8 560.5,391L560.5,582.9C560.5,585.1 558.7,586.9 556.5,586.9L286.5,586.9C284.3,586.9 282.5,585.2 282.5,582.9Z" style="fill:rgb(211,211,209);fill-rule:nonzero;"/>
        <path id="XMLID_1_" d="M556.5,599L286.5,599C281,599 276.5,594.5 276.5,589L276.5,391C276.5,385.5 281,381 286.5,381L556.5,381C562,381 566.5,385.5 566.5,391L566.5,589C566.5,594.5 562,599 556.5,599Z" style="fill:none;fill-rule:nonzero;stroke:rgb(12,23,64);stroke-width:6px;"/>
        <path id="XMLID_5_" d="M294.5,551.6L294.5,405.6C294.5,401.2 298.1,397.6 302.5,397.6L540.5,397.6C544.9,397.6 548.5,401.2 548.5,405.6L548.5,551.6C548.5,556 544.9,559.6 540.5,559.6L302.5,559.6C298.1,559.6 294.5,556 294.5,551.6Z" style="fill:rgb(180,170,193);fill-rule:nonzero;"/>
        <path id="XMLID_37_" d="M302.5,555.6C300.3,555.6 298.5,553.8 298.5,551.6L298.5,405.6C298.5,403.4 300.3,401.6 302.5,401.6L540.5,401.6C542.7,401.6 544.5,403.4 544.5,405.6L544.5,551.6C544.5,553.8 542.7,555.6 540.5,555.6L302.5,555.6Z" style="fill:rgb(12,23,64);fill-rule:nonzero;"/>
        <g id="XMLID_122_">
            <path id="XMLID_126_" d="M442.3,476.6C435.5,473.3 428.6,474.6 421.8,476.2L421.8,455.7C428.6,454.1 435.5,452.8 442.3,456.1L442.3,476.6Z" style="fill:rgb(73,136,226);fill-rule:nonzero;"/>
            <path id="XMLID_125_" d="M442.3,500.5C435.5,497.2 428.6,498.5 421.8,500.1L421.8,479.6C428.6,478 435.5,476.7 442.3,480L442.3,500.5Z" style="fill:rgb(73,136,226);fill-rule:nonzero;"/>
            <path id="XMLID_124_" d="M418.4,500.9C411.6,502.5 404.7,503.8 397.9,500.5L397.9,480C404.7,483.3 411.6,482 418.4,480.4L418.4,500.9Z" style="fill:rgb(73,136,226);fill-rule:nonzero;"/>
            <path id="XMLID_123_" d="M418.4,477C411.6,478.6 404.7,479.9 397.9,476.6L397.9,456.1C404.7,459.4 411.6,458.1 418.4,456.5L418.4,477Z" style="fill:rgb(73,136,226);fill-rule:nonzero;"/>
        </g>
        <path id="XMLID_22_" d="M440.7,599L402.2,599C402.2,612.2 389.2,623.1 372.3,624.1L358,624.9C350.4,625.3 344.4,631.5 344.4,639L498.4,639C498.4,631.5 492.5,625.3 484.8,624.9L470.5,624.1C453.8,623.1 440.7,612.2 440.7,599Z" style="fill:rgb(180,170,193);fill-rule:nonzero;"/>
        <path id="XMLID_42_" d="M372.4,624.1L358.1,624.9C350.5,625.3 344.5,631.5 344.5,639L498.5,639C498.5,631.5 492.6,625.3 484.9,624.9L470.6,624.1C468.7,624 466.8,623.7 464.9,623.4L378,623.4C376.2,623.7 374.3,624 372.4,624.1Z" style="fill:rgb(211,211,209);fill-rule:nonzero;"/>
        <path id="XMLID_41_" d="M446.7,613.5C443,609.4 440.8,604.4 440.8,599L402.3,599C402.3,604.4 400.1,609.4 396.4,613.5L446.7,613.5Z" style="fill:rgb(149,139,165);fill-rule:nonzero;"/>
        <path id="XMLID_7_" d="M440.7,599L402.2,599C402.2,612.2 389.2,623.1 372.3,624.1L358,624.9C350.4,625.3 344.4,631.5 344.4,639L498.4,639C498.4,631.5 492.5,625.3 484.8,624.9L470.5,624.1C453.8,623.1 440.7,612.2 440.7,599Z" style="fill:none;fill-rule:nonzero;stroke:rgb(12,23,64);stroke-width:6px;"/>
        <path id="XMLID_23_" d="M730.9,625L598.9,625C594.5,625 590.9,621.4 590.9,617L590.9,331C590.9,326.6 594.5,323 598.9,323L730.9,323C735.3,323 738.9,326.6 738.9,331L738.9,617C738.9,621.4 735.3,625 730.9,625Z" style="fill:rgb(54,68,119);fill-rule:nonzero;"/>
        <path id="XMLID_4_" d="M730.9,625L598.9,625C594.5,625 590.9,621.4 590.9,617L590.9,331C590.9,326.6 594.5,323 598.9,323L730.9,323C735.3,323 738.9,326.6 738.9,331L738.9,617C738.9,621.4 735.3,625 730.9,625Z" style="fill:none;fill-rule:nonzero;stroke:rgb(12,23,64);stroke-width:6px;"/>
        <path id="XMLID_46_" d="M664.9,615C629.6,615 600.9,586.3 600.9,551L600.9,334C600.9,333.4 601.3,333 601.9,333L727.9,333C728.5,333 728.9,333.4 728.9,334L728.9,551C728.9,586.3 700.2,615 664.9,615Z" style="fill:rgb(62,80,128);fill-rule:nonzero;"/>
        <path id="XMLID_50_" d="M600.9,355.5L600.9,537.5C600.9,573.4 629.6,602.6 664.9,602.6C700.2,602.6 728.9,573.4 728.9,537.5L728.9,355.5L600.9,355.5Z" style="fill:rgb(54,68,119);fill-rule:nonzero;"/>
        <path id="XMLID_13_" d="M664.9,615C629.6,615 600.9,586.3 600.9,551L600.9,334C600.9,333.4 601.3,333 601.9,333L727.9,333C728.5,333 728.9,333.4 728.9,334L728.9,551C728.9,586.3 700.2,615 664.9,615Z" style="fill:none;fill-rule:nonzero;stroke:rgb(12,23,64);stroke-width:3px;"/>
        <path id="XMLID_44_" d="M664.9,591C629.6,591 600.9,562.3 600.9,527L600.9,334C600.9,333.4 601.3,333 601.9,333L727.9,333C728.5,333 728.9,333.4 728.9,334L728.9,527C728.9,562.3 700.2,591 664.9,591Z" style="fill:rgb(72,93,140);fill-rule:nonzero;"/>
        <path id="XMLID_14_" d="M664.9,591C629.6,591 600.9,562.3 600.9,527L600.9,334C600.9,333.4 601.3,333 601.9,333L727.9,333C728.5,333 728.9,333.4 728.9,334L728.9,527C728.9,562.3 700.2,591 664.9,591Z" style="fill:none;fill-rule:nonzero;stroke:rgb(12,23,64);stroke-width:3px;"/>
        <rect id="XMLID_24_" x="608.9" y="625" width="112" height="14" style="fill:rgb(38,56,102);"/>
        <rect id="XMLID_2_" x="608.9" y="625" width="112" height="7" style="fill:rgb(27,47,91);"/>
        <rect id="XMLID_6_" x="608.9" y="625" width="112" height="14" style="fill:none;stroke:rgb(12,23,64);stroke-width:6px;"/>
        <path id="XMLID_53_" d="M716.4,367.3L613.4,367.3C610.9,367.3 608.9,365.3 608.9,362.8L608.9,346.3C608.9,343.8 610.9,341.8 613.4,341.8L716.4,341.8C718.9,341.8 720.9,343.8 720.9,346.3L720.9,362.8C720.9,365.3 718.9,367.3 716.4,367.3Z" style="fill:rgb(54,68,119);fill-rule:nonzero;"/>
        <path id="XMLID_8_" d="M716.4,367.3L613.4,367.3C610.9,367.3 608.9,365.3 608.9,362.8L608.9,346.3C608.9,343.8 610.9,341.8 613.4,341.8L716.4,341.8C718.9,341.8 720.9,343.8 720.9,346.3L720.9,362.8C720.9,365.3 718.9,367.3 716.4,367.3Z" style="fill:none;fill-rule:nonzero;stroke:rgb(12,23,64);stroke-width:2px;"/>
        <path id="XMLID_57_" d="M716.4,404L646.8,404C644.3,404 642.3,402 642.3,399.5L642.3,388.1C642.3,385.6 644.3,383.6 646.8,383.6L716.4,383.6C718.9,383.6 720.9,385.6 720.9,388.1L720.9,399.5C720.9,402 718.9,404 716.4,404Z" style="fill:rgb(54,68,119);fill-rule:nonzero;"/>
        <path id="XMLID_11_" d="M716.4,404L646.8,404C644.3,404 642.3,402 642.3,399.5L642.3,388.1C642.3,385.6 644.3,383.6 646.8,383.6L716.4,383.6C718.9,383.6 720.9,385.6 720.9,388.1L720.9,399.5C720.9,402 718.9,404 716.4,404Z" style="fill:none;fill-rule:nonzero;stroke:rgb(12,23,64);stroke-width:2px;"/>
        <circle id="XMLID_9_" cx="666.7" cy="537.6" r="17.8" style="fill:rgb(88,115,163);"/>
        <path id="XMLID_18_" d="M719.1,460.5L610.7,460.5C609.7,460.5 608.9,459.7 608.9,458.7L608.9,434.3C608.9,433.3 609.7,432.5 610.7,432.5L719.1,432.5C720.1,432.5 720.9,433.3 720.9,434.3L720.9,458.7C720.9,459.7 720.1,460.5 719.1,460.5Z" style="fill:rgb(54,68,119);fill-rule:nonzero;"/>
        <circle id="XMLID_12_" cx="664.9" cy="488.6" r="10.3" style="fill:rgb(12,23,64);"/>
        <circle id="XMLID_52_" cx="664.9" cy="488.6" r="9.5" style="fill:rgb(31,47,99);"/>
        <path id="XMLID_20_" d="M707.1,450L688.3,450C687.7,450 687.2,449.5 687.2,448.9L687.2,444.1C687.2,443.5 687.7,443 688.3,443L707.1,443C707.7,443 708.2,443.5 708.2,444.1L708.2,448.9C708.2,449.5 707.7,450 707.1,450Z" style="fill:rgb(12,23,64);fill-rule:nonzero;"/>
        <path id="XMLID_15_" d="M688.2,446.4L688.2,444.1C688.2,444 688.2,444 688.3,444L707.1,444C707.2,444 707.2,444 707.2,444.1L707.2,446.4C707.2,446.5 707.2,446.5 707.1,446.5L688.2,446.4C688.3,446.5 688.2,446.5 688.2,446.4Z" style="fill:rgb(72,93,140);fill-rule:nonzero;"/>
        <path id="XMLID_40_" d="M681.4,450L662.6,450C662,450 661.5,449.5 661.5,448.9L661.5,444.1C661.5,443.5 662,443 662.6,443L681.4,443C682,443 682.5,443.5 682.5,444.1L682.5,448.9C682.5,449.5 682,450 681.4,450Z" style="fill:rgb(12,23,64);fill-rule:nonzero;"/>
        <path id="XMLID_16_" d="M662.5,446.4L662.5,444.1C662.5,444 662.5,444 662.6,444L681.4,444C681.5,444 681.5,444 681.5,444.1L681.5,446.4C681.5,446.5 681.5,446.5 681.4,446.5L662.5,446.4Z" style="fill:rgb(72,93,140);fill-rule:nonzero;"/>
        <circle id="XMLID_25_" cx="530.1" cy="572.8" r="6" style="fill:rgb(12,23,64);fill-opacity:0.51;"/>
        <circle id="XMLID_17_" cx="530.1" cy="572.8" r="5.6" style="fill:white;"/>
        <circle id="XMLID_27_" cx="516.2" cy="572.8" r="3" style="fill:rgb(12,23,64);fill-opacity:0.51;"/>
        <circle id="XMLID_39_" cx="516.2" cy="572.8" r="2.8" style="fill:white;"/>
        <g id="XMLID_28_" transform="matrix(0.7071,-0.7071,0.7071,0.7071,-284.608,465.385)">
            <rect x="418" y="570.5" width="2.9" height="11.5" style="fill:rgb(12,23,64);"/>
        </g>
        <g id="XMLID_30_" transform="matrix(0.7071,-0.7071,0.7071,0.7071,-280.3,463.6)">
            <rect x="416.6" y="568.7" width="5.7" height="2.9" style="fill:rgb(12,23,64);"/>
        </g>
        <g id="XMLID_31_" transform="matrix(0.7071,-0.7071,0.7071,0.7071,-282.824,469.694)">
            <rect x="422.7" y="574.8" width="5.7" height="2.9" style="fill:rgb(12,23,64);"/>
        </g>
        <g id="XMLID_32_" transform="matrix(0.7071,-0.7071,0.7071,0.7071,-281.562,466.647)">
            <rect x="419.6" y="571.8" width="5.7" height="2.9" style="fill:rgb(12,23,64);"/>
        </g>
        <g id="XMLID_36_" transform="matrix(0.7071,-0.7071,0.7071,0.7071,-187.716,627.714)">
            <rect x="661.9" y="532.5" width="4" height="16" style="fill:rgb(72,93,140);"/>
        </g>
        <g id="XMLID_35_" transform="matrix(0.7071,-0.7071,0.7071,0.7071,-181.716,625.229)">
            <rect x="659.9" y="530" width="8" height="4" style="fill:rgb(72,93,140);"/>
        </g>
        <g id="XMLID_34_" transform="matrix(0.7071,-0.7071,0.7071,0.7071,-185.231,633.714)">
            <rect x="668.3" y="538.5" width="8" height="4" style="fill:rgb(72,93,140);"/>
        </g>
        <g id="XMLID_33_" transform="matrix(0.7071,-0.7071,0.7071,0.7071,-183.473,629.471)">
            <rect x="664.1" y="534.2" width="8" height="4" style="fill:rgb(72,93,140);"/>
        </g>
        <path id="XMLID_10_" d="M712.8,396.8L649,396.8C648.3,396.8 647.8,396.2 647.8,395.6L647.8,391.3C647.8,390.6 648.4,390.1 649,390.1L712.8,390.1C713.5,390.1 714,390.7 714,391.3L714,395.6C714.1,396.3 713.5,396.8 712.8,396.8Z" style="fill:rgb(12,23,64);fill-rule:nonzero;"/>
        <path id="XMLID_43_" d="M701.2,398.9L686.4,398.9C683.4,398.9 680.9,396.4 680.9,393.4C680.9,390.4 683.4,387.9 686.4,387.9L701.2,387.9C704.2,387.9 706.7,390.4 706.7,393.4C706.7,396.4 704.3,398.9 701.2,398.9Z" style="fill:rgb(12,23,64);fill-rule:nonzero;"/>
        <path id="XMLID_45_" d="M649.7,393.4C649.7,392.6 650.3,392 651.1,392L710.6,392C711.4,392 712,392.6 712,393.4C712,394.2 711.4,394.8 710.6,394.8L651.1,394.8C650.4,394.8 649.7,394.2 649.7,393.4Z" style="fill:rgb(9,20,56);fill-rule:nonzero;"/>
        <circle id="XMLID_51_" cx="650.6" cy="446.5" r="3.5" style="fill:rgb(12,23,64);"/>
        <circle id="XMLID_48_" cx="636.4" cy="446.5" r="3.5" style="fill:rgb(12,23,64);"/>
        <circle id="XMLID_47_" cx="650.6" cy="446.5" r="3.5" style="fill:none;stroke:rgb(26,193,125);stroke-opacity:0.58;stroke-width:2px;stroke-linecap:butt;stroke-linejoin:miter;"/>
        <circle id="XMLID_49_" cx="636.4" cy="446.5" r="3.5" style="fill:none;stroke:rgb(249,35,46);stroke-opacity:0.58;stroke-width:2px;stroke-linecap:butt;stroke-linejoin:miter;"/>
        <path id="XMLID_56_" d="M660.7,483.6C659.3,484.8 658.4,486.6 658.4,488.5C658.4,492.1 661.3,495 664.9,495C668.5,495 671.4,492.1 671.4,488.5C671.4,486.5 670.5,484.8 669.1,483.6" style="fill:none;fill-rule:nonzero;stroke:rgb(12,23,64);stroke-width:2px;"/>
        <path id="XMLID_54_" d="M664.9,481L664.9,488.6" style="fill:none;fill-rule:nonzero;stroke:rgb(12,23,64);stroke-width:2px;"/>
        <path id="XMLID_55_" d="M715.6,358.3L614.4,358.3C613.6,358.3 613,357.7 613,356.9L613,347.4C613,346.6 613.6,346 614.4,346L715.6,346C716.4,346 717,346.6 717,347.4L717,356.9C717,357.7 716.4,358.3 715.6,358.3Z" style="fill:rgb(12,23,64);fill-rule:nonzero;"/>
        <path id="XMLID_58_" d="M715.4,364.2L708.8,364.2C708.4,364.2 708,363.8 708,363.4L708,362.3C708,361.9 708.4,361.5 708.8,361.5L715.4,361.5C715.8,361.5 716.2,361.9 716.2,362.3L716.2,363.4C716.2,363.8 715.8,364.2 715.4,364.2Z" style="fill:rgb(12,23,64);fill-rule:nonzero;"/>
        <path id="XMLID_60_" d="M703.5,364.2C702.7,364.2 702.1,363.6 702.1,362.8C702.1,362 702.7,361.4 703.5,361.4C704.3,361.4 704.9,362 704.9,362.8C704.9,363.6 704.3,364.2 703.5,364.2Z" style="fill:rgb(42,209,66);fill-rule:nonzero;"/>
        <circle id="XMLID_59_" cx="682.1" cy="479.7" r="2.3" style="fill:rgb(12,23,64);"/>
        <circle id="XMLID_61_" cx="682.1" cy="479.7" r="1.7" style="fill:rgb(31,47,99);"/>
        <path id="XMLID_80_" d="M583,635.4L479,635.4L479,627C479,624.1 481.4,621.7 484.3,621.7L577.7,621.7C580.6,621.7 583,624.1 583,627L583,635.4Z" style="fill:rgb(183,183,183);fill-rule:nonzero;"/>
        <path id="XMLID_79_" d="M413.1,635.4L393.1,635.4L393.1,627C393.1,624.1 395.5,621.7 398.4,621.7L407.8,621.7C410.7,621.7 413.1,624.1 413.1,627L413.1,635.4Z" style="fill:rgb(183,183,183);fill-rule:nonzero;"/>
        <path id="XMLID_78_" d="M441.1,635.4L421.1,635.4L421.1,627C421.1,624.1 423.5,621.7 426.4,621.7L435.8,621.7C438.7,621.7 441.1,624.1 441.1,627L441.1,635.4Z" style="fill:rgb(183,183,183);fill-rule:nonzero;"/>
        <path id="XMLID_77_" d="M610.9,635.4L590.9,635.4L590.9,627C590.9,624.1 593.3,621.7 596.2,621.7L605.6,621.7C608.5,621.7 610.9,624.1 610.9,627L610.9,635.4Z" style="fill:rgb(183,183,183);fill-rule:nonzero;"/>
        <path id="XMLID_76_" d="M639.8,635.4L619.8,635.4L619.8,627C619.8,624.1 622.2,621.7 625.1,621.7L634.5,621.7C637.4,621.7 639.8,624.1 639.8,627L639.8,635.4Z" style="fill:rgb(183,183,183);fill-rule:nonzero;"/>
        <path id="XMLID_75_" d="M667.7,635.4L647.7,635.4L647.7,627C647.7,624.1 650.1,621.7 653,621.7L662.4,621.7C665.3,621.7 667.7,624.1 667.7,627L667.7,635.4Z" style="fill:rgb(183,183,183);fill-rule:nonzero;"/>
        <path id="XMLID_74_" d="M674.5,651.9L387,651.9C382.4,651.9 378.7,648.2 378.7,643.6C378.7,639 382.4,635.3 387,635.3L674.5,635.3C679.1,635.3 682.8,639 682.8,643.6C682.7,648.2 679,651.9 674.5,651.9Z" style="fill:rgb(211,211,209);fill-rule:nonzero;"/>
        <path id="XMLID_72_" d="M583,635.4L479,635.4L479,627C479,624.1 481.4,621.7 484.3,621.7L577.7,621.7C580.6,621.7 583,624.1 583,627L583,635.4Z" style="fill:none;fill-rule:nonzero;stroke:rgb(12,23,64);stroke-width:6px;"/>
        <path id="XMLID_71_" d="M413.1,635.4L393.1,635.4L393.1,627C393.1,624.1 395.5,621.7 398.4,621.7L407.8,621.7C410.7,621.7 413.1,624.1 413.1,627L413.1,635.4Z" style="fill:none;fill-rule:nonzero;stroke:rgb(12,23,64);stroke-width:6px;"/>
        <path id="XMLID_69_" d="M441.1,635.4L421.1,635.4L421.1,627C421.1,624.1 423.5,621.7 426.4,621.7L435.8,621.7C438.7,621.7 441.1,624.1 441.1,627L441.1,635.4Z" style="fill:none;fill-rule:nonzero;stroke:rgb(12,23,64);stroke-width:6px;"/>
        <path id="XMLID_85_" d="M470.1,635.4L450.1,635.4L450.1,627C450.1,624.1 452.5,621.7 455.4,621.7L464.8,621.7C467.7,621.7 470.1,624.1 470.1,627L470.1,635.4Z" style="fill:rgb(183,183,183);fill-rule:nonzero;"/>
        <path id="XMLID_84_" d="M470.1,635.4L450.1,635.4L450.1,627C450.1,624.1 452.5,621.7 455.4,621.7L464.8,621.7C467.7,621.7 470.1,624.1 470.1,627L470.1,635.4Z" style="fill:none;fill-rule:nonzero;stroke:rgb(12,23,64);stroke-width:6px;"/>
        <path id="XMLID_68_" d="M610.9,635.4L590.9,635.4L590.9,627C590.9,624.1 593.3,621.7 596.2,621.7L605.6,621.7C608.5,621.7 610.9,624.1 610.9,627L610.9,635.4Z" style="fill:none;fill-rule:nonzero;stroke:rgb(12,23,64);stroke-width:6px;"/>
        <path id="XMLID_67_" d="M639.8,635.4L619.8,635.4L619.8,627C619.8,624.1 622.2,621.7 625.1,621.7L634.5,621.7C637.4,621.7 639.8,624.1 639.8,627L639.8,635.4Z" style="fill:none;fill-rule:nonzero;stroke:rgb(12,23,64);stroke-width:6px;"/>
        <path id="XMLID_66_" d="M667.7,635.4L647.7,635.4L647.7,627C647.7,624.1 650.1,621.7 653,621.7L662.4,621.7C665.3,621.7 667.7,624.1 667.7,627L667.7,635.4Z" style="fill:none;fill-rule:nonzero;stroke:rgb(12,23,64);stroke-width:6px;"/>
        <path id="XMLID_62_" d="M674.5,651.9L387,651.9C382.4,651.9 378.7,648.2 378.7,643.6C378.7,639 382.4,635.3 387,635.3L674.5,635.3C679.1,635.3 682.8,639 682.8,643.6C682.7,648.2 679,651.9 674.5,651.9Z" style="fill:none;fill-rule:nonzero;stroke:rgb(12,23,64);stroke-width:6px;"/>
        <path id="XMLID_73_" d="M696.5,651.9C696.5,639.8 706.3,630 718.4,630C730.5,630 740.3,639.8 740.3,651.9L696.5,651.9Z" style="fill:rgb(211,211,209);fill-rule:nonzero;"/>
        <path id="XMLID_70_" d="M696.5,651.9C696.5,639.8 706.3,630 718.4,630C730.5,630 740.3,639.8 740.3,651.9L696.5,651.9Z" style="fill:none;fill-rule:nonzero;stroke:rgb(12,23,64);stroke-width:6px;"/>
        <path id="XMLID_83_" d="M718.5,632.1L718.5,638.7" style="fill:none;fill-rule:nonzero;stroke:rgb(12,23,64);stroke-width:6px;"/>
        <path id="XMLID_89_" d="M377.7,555.6L456.1,401.6L418.3,401.6L339.9,555.6L377.7,555.6Z" style="fill:rgb(25,40,89);fill-opacity:0.72;fill-rule:nonzero;"/>
        <path id="XMLID_88_" d="M424.6,555.6L503.1,401.6L484.2,401.6L405.8,555.6L424.6,555.6Z" style="fill:rgb(25,40,89);fill-opacity:0.72;fill-rule:nonzero;"/>
        <path id="XMLID_94_" d="M620.7,476C619.3,475.3 617.8,475.6 616.4,475.9L616.4,471.6C617.8,471.3 619.3,471 620.7,471.7L620.7,476Z" style="fill:rgb(103,193,139);fill-rule:nonzero;"/>
        <path id="XMLID_93_" d="M620.7,481C619.3,480.3 617.8,480.6 616.4,480.9L616.4,476.6C617.8,476.3 619.3,476 620.7,476.7L620.7,481Z" style="fill:rgb(229,229,106);fill-rule:nonzero;"/>
        <path id="XMLID_92_" d="M615.6,481.1C614.2,481.4 612.7,481.7 611.3,481L611.3,476.7C612.7,477.4 614.2,477.1 615.6,476.8L615.6,481.1Z" style="fill:rgb(73,136,226);fill-rule:nonzero;"/>
        <path id="XMLID_91_" d="M615.6,476.1C614.2,476.4 612.7,476.7 611.3,476L611.3,471.7C612.7,472.4 614.2,472.1 615.6,471.8L615.6,476.1Z" style="fill:rgb(232,112,96);fill-rule:nonzero;"/>
        <path id="XMLID_95_" d="M623.7,474.5L635.6,474.5" style="fill:none;fill-rule:nonzero;stroke:rgb(12,23,64);stroke-opacity:0.28;stroke-width:2px;"/>
        <path id="XMLID_96_" d="M623.7,478.1L632.9,478.1" style="fill:none;fill-rule:nonzero;stroke:rgb(12,23,64);stroke-opacity:0.28;stroke-width:2px;"/>
    </g>
</svg>
