<?xml version="1.0" encoding="UTF-8" standalone="no"?>
<!DOCTYPE svg PUBLIC "-//W3C//DTD SVG 1.1//EN" "http://www.w3.org/Graphics/SVG/1.1/DTD/svg11.dtd">
<svg width="100%" height="100%" viewBox="0 0 1080 1080" version="1.1" xmlns="http://www.w3.org/2000/svg" xmlns:xlink="http://www.w3.org/1999/xlink" xml:space="preserve" xmlns:serif="http://www.serif.com/" style="fill-rule:evenodd;clip-rule:evenodd;stroke-linecap:round;stroke-linejoin:round;stroke-miterlimit:10;">
    <g id="day42-imac.svg" transform="matrix(2,0,0,2,538.908,585.182)">
        <g transform="matrix(1,0,0,1,-500,-500)">
            <path id="XMLID_5_" d="M582.2,613.6L414.3,613.6C411.3,613.6 408.8,611.1 408.8,608.1C408.8,605.1 411.3,602.6 414.3,602.6L582.2,602.6C585.2,602.6 587.7,605.1 587.7,608.1C587.7,611.1 585.2,613.6 582.2,613.6Z" style="fill:rgb(28,28,28);fill-opacity:0.32;fill-rule:nonzero;"/>
            <path id="XMLID_3_" d="M699.5,655.5L347.7,655.5C344.7,655.5 342.2,653 342.2,650C342.2,647 344.7,644.5 347.7,644.5L699.5,644.5C702.5,644.5 705,647 705,650C705,653.1 702.5,655.5 699.5,655.5Z" style="fill:rgb(28,28,28);fill-opacity:0.32;fill-rule:nonzero;"/>
            <path id="XMLID_7_" d="M674.2,505.1L322.2,505.1L322.2,316.7C322.2,308 329.2,301 337.9,301L658,301C666.9,301 674.2,308.3 674.2,317.2L674.2,505.1Z" style="fill:rgb(56,57,57);fill-rule:nonzero;"/>
            <path id="XMLID_30_" d="M328.2,490.1L328.2,316.1C328.2,311.1 332.2,307.1 337.2,307.1L659.2,307.1C664.2,307.1 668.2,311.1 668.2,316.1L668.2,490.1C668.2,495.1 664.2,499.1 659.2,499.1L337.2,499.1C332.3,499.1 328.2,495 328.2,490.1Z" style="fill:rgb(58,58,58);fill-rule:nonzero;"/>
            <path id="XMLID_18_" d="M674.2,505.1L322.2,505.1L322.2,316.7C322.2,308 329.2,301 337.9,301L658,301C666.9,301 674.2,308.3 674.2,317.2L674.2,505.1Z" style="fill:none;fill-rule:nonzero;stroke:rgb(56,57,57);stroke-width:6px;"/>
            <g id="XMLID_10_" transform="matrix(-1.83697e-16,1,-1,-1.83697e-16,901.285,-95.1796)">
                <rect x="416.2" y="247.1" width="164" height="312" style="fill:rgb(79,79,79);"/>
            </g>
            <path id="XMLID_19_" d="M657.9,553.1L338,553.1C329.3,553.1 322.2,546 322.2,537.3L322.2,505.1L674.2,505.1L674.2,536.8C674.2,545.7 666.9,553.1 657.9,553.1Z" style="fill:rgb(212,232,220);fill-rule:nonzero;"/>
            <path id="XMLID_4_" d="M338,545.1C333.7,545.1 330.2,541.6 330.2,537.3L330.2,508.4L666.2,508.4L666.2,536.8C666.2,541.4 662.5,545.1 657.9,545.1L338,545.1Z" style="fill:rgb(235,242,238);fill-rule:nonzero;"/>
            <path id="XMLID_6_" d="M657.9,553.1L338,553.1C329.3,553.1 322.2,546 322.2,537.3L322.2,505.1L674.2,505.1L674.2,536.8C674.2,545.7 666.9,553.1 657.9,553.1Z" style="fill:none;fill-rule:nonzero;stroke:rgb(56,57,57);stroke-width:6px;"/>
            <path id="XMLID_22_" d="M551.2,589.1L445.2,589.1L460.9,553.1L535.5,553.1L551.2,589.1Z" style="fill:rgb(202,216,208);fill-rule:nonzero;"/>
            <path id="XMLID_27_" d="M542.5,569.1L535.5,553.1L460.9,553.1L453.9,569.1L542.5,569.1Z" style="fill:rgb(161,173,166);fill-rule:nonzero;"/>
            <path id="XMLID_1_" d="M551.2,589.1L445.2,589.1L460.9,553.1L535.5,553.1L551.2,589.1Z" style="fill:none;fill-rule:nonzero;stroke:rgb(56,57,57);stroke-width:6px;"/>
            <path id="XMLID_23_" d="M571.2,605.1L425.2,605.1L426.7,599.8C428.5,593.5 434.4,589.1 441.2,589.1L555.2,589.1C562,589.1 568,593.5 569.7,599.8L571.2,605.1Z" style="fill:rgb(218,237,226);fill-rule:nonzero;"/>
            <path id="XMLID_9_" d="M571.2,605.1L425.2,605.1L426.7,599.8C428.5,593.5 434.4,589.1 441.2,589.1L555.2,589.1C562,589.1 568,593.5 569.7,599.8L571.2,605.1Z" style="fill:none;fill-rule:nonzero;stroke:rgb(56,57,57);stroke-width:6px;"/>
            <path id="XMLID_24_" d="M368.1,646L621.8,646C625.5,646 628.5,643 628.5,639.3C628.5,635.6 625.5,632.6 621.8,632.6L368.1,632.6C364.4,632.6 361.4,635.6 361.4,639.3C361.3,643 364.3,646 368.1,646Z" style="fill:rgb(218,237,226);fill-rule:nonzero;"/>
            <path id="XMLID_8_" d="M368.1,646L621.8,646C625.5,646 628.5,643 628.5,639.3C628.5,635.6 625.5,632.6 621.8,632.6L368.1,632.6C364.4,632.6 361.4,635.6 361.4,639.3C361.3,643 364.3,646 368.1,646Z" style="fill:none;fill-rule:nonzero;stroke:rgb(56,57,57);stroke-width:6px;"/>
            <path id="XMLID_11_" d="M445.9,632.5L567.9,632.5L567.9,628.5C567.9,625.2 565.2,622.5 561.9,622.5L451.9,622.5C448.6,622.5 445.9,625.2 445.9,628.5L445.9,632.5Z" style="fill:rgb(56,57,57);fill-rule:nonzero;"/>
            <path id="XMLID_13_" d="M421.7,632.5L442.9,632.5L442.9,628.5C442.9,625.2 440.2,622.5 436.9,622.5L427.7,622.5C424.4,622.5 421.7,625.2 421.7,628.5L421.7,632.5Z" style="fill:rgb(56,57,57);fill-rule:nonzero;"/>
            <path id="XMLID_14_" d="M397,632.5L418.2,632.5L418.2,628.5C418.2,625.2 415.5,622.5 412.2,622.5L403,622.5C399.7,622.5 397,625.2 397,628.5L397,632.5Z" style="fill:rgb(56,57,57);fill-rule:nonzero;"/>
            <path id="XMLID_17_" d="M596.2,632.5L617.4,632.5L617.4,628.5C617.4,625.2 614.7,622.5 611.4,622.5L602.2,622.5C598.9,622.5 596.2,625.2 596.2,628.5L596.2,632.5Z" style="fill:rgb(56,57,57);fill-rule:nonzero;"/>
            <path id="XMLID_16_" d="M571.6,632.5L592.8,632.5L592.8,628.5C592.8,625.2 590.1,622.5 586.8,622.5L577.6,622.5C574.3,622.5 571.6,625.2 571.6,628.5L571.6,632.5Z" style="fill:rgb(56,57,57);fill-rule:nonzero;"/>
            <path id="XMLID_15_" d="M372.4,632.5L393.6,632.5L393.6,628.5C393.6,625.2 390.9,622.5 387.6,622.5L378.4,622.5C375.1,622.5 372.4,625.2 372.4,628.5L372.4,632.5Z" style="fill:rgb(56,57,57);fill-rule:nonzero;"/>
            <path id="XMLID_25_" d="M688.7,646C688.6,638.4 680.3,630.8 665.6,630.8C651,630.8 642.6,638.4 642.5,646L688.7,646Z" style="fill:rgb(218,237,226);fill-rule:nonzero;"/>
            <path id="XMLID_20_" d="M688.7,646C688.6,638.4 680.3,630.8 665.6,630.8C651,630.8 642.6,638.4 642.5,646L688.7,646Z" style="fill:none;fill-rule:nonzero;stroke:rgb(56,57,57);stroke-width:6px;"/>
            <path id="XMLID_21_" d="M512.4,526.6C507.8,526.6 504,523.2 503.4,518.7L503.2,518.7C497.5,518.7 492.9,523.3 492.9,529C492.9,534.7 497.5,539.3 503.2,539.3C508.9,539.3 513.5,534.7 513.5,529C513.5,528.1 513.4,527.3 513.2,526.5C512.9,526.6 512.7,526.6 512.4,526.6Z" style="fill:rgb(56,57,57);fill-rule:nonzero;"/>
            <path id="XMLID_31_" d="M509.1,401.5C506.2,401.5 503.7,399.3 503.4,396.5L503.3,396.5C499.7,396.5 496.7,399.5 496.7,403.1C496.7,406.7 499.7,409.7 503.3,409.7C506.9,409.7 509.9,406.7 509.9,403.1C509.9,402.5 509.8,402 509.7,401.5L509.1,401.5Z" style="fill:rgb(231,247,247);fill-rule:nonzero;"/>
            <path id="XMLID_28_" d="M377.6,485.1L415.8,485.1L499.4,321.1L461.2,321.1L377.6,485.1Z" style="fill:rgb(194,211,201);fill-opacity:0.16;fill-rule:nonzero;"/>
            <path id="XMLID_29_" d="M446.7,485.1L530.3,321.1L516,321.1L432.4,485.1L446.7,485.1Z" style="fill:rgb(194,211,201);fill-opacity:0.16;fill-rule:nonzero;"/>
            <g id="XMLID_32_" opacity="0.38">
                <path id="XMLID_34_" d="M521.5,428L481.3,428C480.5,428 479.8,427.3 479.8,426.5C479.8,425.7 480.5,425 481.3,425L521.5,425C522.3,425 523,425.7 523,426.5C523,427.3 522.3,428 521.5,428Z" style="fill:rgb(194,211,201);fill-rule:nonzero;"/>
            </g>
            <path id="XMLID_37_" d="M495.2,425L481.3,425C480.5,425 479.8,425.7 479.8,426.5C479.8,427.3 480.5,428 481.3,428L495.2,428L495.2,425Z" style="fill:rgb(194,211,201);fill-rule:nonzero;"/>
        </g>
    </g>
</svg>
