<?xml version="1.0" encoding="UTF-8" standalone="no"?>
<!DOCTYPE svg PUBLIC "-//W3C//DTD SVG 1.1//EN" "http://www.w3.org/Graphics/SVG/1.1/DTD/svg11.dtd">
<svg width="100%" height="100%" viewBox="0 0 498 406" version="1.1" xmlns="http://www.w3.org/2000/svg" xmlns:xlink="http://www.w3.org/1999/xlink" xml:space="preserve" xmlns:serif="http://www.serif.com/" style="fill-rule:evenodd;clip-rule:evenodd;stroke-linecap:round;stroke-linejoin:round;stroke-miterlimit:10;">
    <g transform="matrix(1,0,0,1,-270.7,-278.9)">
        <path id="XMLID_38_" d="M753.1,684L285.7,684C277.4,684 270.7,677.3 270.7,669C270.7,660.7 277.4,654 285.7,654L753.1,654C761.4,654 768.1,660.7 768.1,669C768.1,677.3 761.4,684 753.1,684Z" style="fill:rgb(53,53,53);fill-opacity:0.34;fill-rule:nonzero;"/>
        <path id="XMLID_19_" d="M611.7,622.7L375.7,622.7C365.8,622.7 357.7,614.6 357.7,604.7L357.7,299.9C357.7,290 365.8,281.9 375.7,281.9L611.7,281.9C621.6,281.9 629.7,290 629.7,299.9L629.7,604.7C629.7,614.6 621.6,622.7 611.7,622.7Z" style="fill:rgb(247,228,203);fill-rule:nonzero;"/>
        <path id="XMLID_30_" d="M611.7,622.7L375.7,622.7C365.8,622.7 357.7,614.6 357.7,604.7L357.7,299.9C357.7,290 365.8,281.9 375.7,281.9L611.7,281.9C621.6,281.9 629.7,290 629.7,299.9L629.7,604.7C629.7,614.6 621.6,622.7 611.7,622.7Z" style="fill:rgb(224,197,170);fill-rule:nonzero;"/>
        <path id="XMLID_31_" d="M369.7,589.9L369.7,309.9C369.7,304.2 374.3,299.7 379.9,299.7L607.4,299.7C613.1,299.7 617.6,304.3 617.6,309.9L617.6,589.9C617.6,595.6 613,600.1 607.4,600.1L380,600.1C374.3,600.2 369.7,595.6 369.7,589.9Z" style="fill:rgb(247,228,203);fill-rule:nonzero;"/>
        <path id="XMLID_1_" d="M611.7,622.7L375.7,622.7C365.8,622.7 357.7,614.6 357.7,604.7L357.7,299.9C357.7,290 365.8,281.9 375.7,281.9L611.7,281.9C621.6,281.9 629.7,290 629.7,299.9L629.7,604.7C629.7,614.6 621.6,622.7 611.7,622.7Z" style="fill:none;fill-rule:nonzero;stroke:rgb(53,53,53);stroke-width:6px;"/>
        <path id="XMLID_34_" d="M394.4,498.7C389,498.7 384.7,494.4 384.7,489L384.7,326.4C384.7,321 389,316.7 394.4,316.7L593,316.7C598.4,316.7 602.7,321 602.7,326.4L602.7,489C602.7,494.4 598.4,498.7 593,498.7L394.4,498.7Z" style="fill:rgb(224,197,170);fill-rule:nonzero;"/>
        <path id="XMLID_22_" d="M412.4,488.1C402.9,488.1 395.2,480.4 395.2,470.9L395.2,344.4C395.2,334.9 402.9,327.2 412.4,327.2L575,327.2C584.5,327.2 592.2,334.9 592.2,344.4L592.2,470.8C592.2,480.3 584.5,488 575,488L412.4,488L412.4,488.1Z" style="fill:rgb(53,53,53);fill-rule:nonzero;"/>
        <path id="XMLID_39_" d="M575,327.2L554.8,327.2C558.3,334.5 560.3,342.7 560.3,351.4C560.3,409.2 513.4,456.1 455.6,456.1L419.4,456.1C410.7,456.1 402.5,454.1 395.2,450.6L395.2,470.8C395.2,480.3 402.9,488 412.4,488L575,488C584.5,488 592.2,480.3 592.2,470.8L592.2,344.4C592.3,334.9 584.6,327.2 575,327.2Z" style="fill:rgb(40,40,40);fill-opacity:0.3;fill-rule:nonzero;"/>
        <path id="XMLID_7_" d="M564.2,539.7L564.2,536.6L495.5,536.6L495.5,524.6L564.2,524.6L564.2,521.5C564.2,520.5 565,519.6 566.1,519.6L602.3,519.6C603.3,519.6 604.2,520.4 604.2,521.5L604.2,539.7C604.2,540.7 603.4,541.6 602.3,541.6L566.1,541.6C565,541.6 564.2,540.8 564.2,539.7Z" style="fill:rgb(224,197,170);fill-rule:nonzero;"/>
        <rect id="XMLID_10_" x="594.7" y="527.6" width="4.3" height="6" style="fill:rgb(53,53,53);"/>
        <path id="XMLID_5_" d="M412.8,575.9L393.4,575.9C392.4,575.9 391.5,575.1 391.5,574L391.5,554.6C391.5,553.6 392.3,552.7 393.4,552.7L412.8,552.7C413.8,552.7 414.7,553.5 414.7,554.6L414.7,574C414.7,575 413.9,575.9 412.8,575.9Z" style="fill:none;fill-rule:nonzero;stroke:rgb(53,53,53);stroke-width:2px;"/>
        <path id="XMLID_4_" d="M658.4,669C658.4,659.1 668.9,651 681.9,651C694.9,651 705.4,659.1 705.4,669L658.4,669Z" style="fill:rgb(242,235,225);fill-rule:nonzero;"/>
        <path id="XMLID_14_" d="M658.4,669C658.4,659.1 668.9,651 681.9,651C694.9,651 705.4,659.1 705.4,669L658.4,669Z" style="fill:none;fill-rule:nonzero;stroke:rgb(53,53,53);stroke-width:6px;"/>
        <rect id="XMLID_24_" x="374.7" y="623.9" width="238" height="24" style="fill:rgb(224,197,170);"/>
        <rect id="XMLID_12_" x="374.7" y="623.9" width="238" height="9.9" style="fill:rgb(198,164,133);"/>
        <rect id="XMLID_9_" x="374.7" y="623.9" width="238" height="24" style="fill:none;stroke:rgb(53,53,53);stroke-width:6px;"/>
        <rect id="XMLID_29_" x="417.7" y="639" width="152" height="12" style="fill:rgb(224,197,170);"/>
        <rect id="XMLID_28_" x="607.7" y="639" width="20" height="12" style="fill:rgb(224,197,170);"/>
        <rect id="XMLID_27_" x="578.7" y="639" width="20" height="12" style="fill:rgb(224,197,170);"/>
        <rect id="XMLID_26_" x="388.7" y="639" width="20" height="12" style="fill:rgb(224,197,170);"/>
        <rect id="XMLID_25_" x="359.7" y="639" width="20" height="12" style="fill:rgb(224,197,170);"/>
        <rect id="XMLID_23_" x="339.5" y="651" width="308.3" height="18" style="fill:rgb(247,228,203);"/>
        <rect id="XMLID_11_" x="339.5" y="651" width="308.3" height="18" style="fill:none;stroke:rgb(53,53,53);stroke-width:6px;"/>
        <rect id="XMLID_13_" x="417.7" y="639" width="152" height="12" style="fill:none;stroke:rgb(53,53,53);stroke-width:6px;"/>
        <rect id="XMLID_15_" x="607.7" y="639" width="20" height="12" style="fill:none;stroke:rgb(53,53,53);stroke-width:6px;"/>
        <rect id="XMLID_16_" x="578.7" y="639" width="20" height="12" style="fill:none;stroke:rgb(53,53,53);stroke-width:6px;"/>
        <rect id="XMLID_18_" x="388.7" y="639" width="20" height="12" style="fill:none;stroke:rgb(53,53,53);stroke-width:6px;"/>
        <rect id="XMLID_17_" x="359.7" y="639" width="20" height="12" style="fill:none;stroke:rgb(53,53,53);stroke-width:6px;"/>
        <path id="XMLID_37_" d="M405.3,562.5C404.4,561.7 403.8,560.6 403.5,559.4L397.2,559.4C396.5,560.3 395.9,561.4 395.6,562.5L405.3,562.5Z" style="fill:rgb(207,151,66);fill-rule:nonzero;"/>
        <path id="XMLID_55_" d="M403.3,558.1C403.3,557.6 403.4,557 403.5,556.6L403.1,556.6C400.7,556.6 398.6,557.7 397.2,559.4L403.5,559.4C403.4,558.9 403.3,558.5 403.3,558.1Z" style="fill:rgb(110,149,70);fill-rule:nonzero;"/>
        <path id="XMLID_59_" d="M397.2,569.3L409,569.3C409.8,568.4 410.3,567.3 410.6,566.2L395.6,566.2C395.9,567.3 396.5,568.4 397.2,569.3Z" style="fill:rgb(124,77,131);fill-rule:nonzero;"/>
        <path id="XMLID_61_" d="M403.1,572C405.5,572 407.6,570.9 409,569.3L397.2,569.3C398.7,571 400.8,572 403.1,572Z" style="fill:rgb(77,141,185);fill-rule:nonzero;"/>
        <path id="XMLID_64_" d="M395.4,564.3C395.4,564.9 395.5,565.6 395.6,566.2L410.6,566.2C410.7,565.6 410.8,565 410.8,564.3L410.8,563.9C410.3,564 409.8,564.1 409.3,564.1C407.7,564.1 406.3,563.5 405.3,562.5L395.7,562.5C395.5,563.1 395.4,563.7 395.4,564.3Z" style="fill:rgb(203,103,87);fill-rule:nonzero;"/>
        <path id="XMLID_20_" d="M423.2,348.2L439.3,348.2" style="fill:none;fill-rule:nonzero;stroke:white;stroke-width:8px;"/>
        <path id="XMLID_21_" d="M456,348.2L513.4,348.2" style="fill:none;fill-rule:nonzero;stroke:white;stroke-width:8px;"/>
        <path id="XMLID_8_" d="M599,529.6L567.6,529.6L567.6,524.8C567.6,523.8 568.4,522.9 569.5,522.9L597.1,522.9C598.1,522.9 599,523.7 599,524.8L599,529.6Z" style="fill:rgb(53,53,53);fill-rule:nonzero;"/>
        <path id="XMLID_32_" d="M597.1,538.3L569.5,538.3C568.5,538.3 567.6,537.5 567.6,536.4L567.6,530.6L599,530.6L599,536.4C599,537.4 598.1,538.3 597.1,538.3Z" style="fill:rgb(53,53,53);fill-rule:nonzero;"/>
        <path id="XMLID_6_" d="M595.1,533.6L500.5,533.6C500,533.6 499.5,533.2 499.5,532.6L499.5,528.5C499.5,528 499.9,527.5 500.5,527.5L595.1,527.5C595.6,527.5 596.1,527.9 596.1,528.5L596.1,532.6C596,533.2 595.6,533.6 595.1,533.6Z" style="fill:rgb(40,40,40);fill-rule:nonzero;"/>
    </g>
</svg>
