<?xml version="1.0" encoding="UTF-8" standalone="no"?>
<!DOCTYPE svg PUBLIC "-//W3C//DTD SVG 1.1//EN" "http://www.w3.org/Graphics/SVG/1.1/DTD/svg11.dtd">
<svg width="100%" height="100%" viewBox="0 0 30 30" version="1.1" xmlns="http://www.w3.org/2000/svg" xmlns:xlink="http://www.w3.org/1999/xlink" xml:space="preserve" xmlns:serif="http://www.serif.com/" style="fill-rule:evenodd;clip-rule:evenodd;stroke-linejoin:round;stroke-miterlimit:2;">
    <g transform="matrix(1,0,0,1,-283,-173)">
        <g transform="matrix(0.982688,0,0,0.982688,122.233,3.85458)">
            <g id="auto-click" serif:id="auto click" transform="matrix(0.928465,0,0,0.928465,163.534,172.693)">
                <path d="M17.124,9.329C17.75,8.556 18.124,7.572 18.124,6.5C18.124,4.015 16.11,2 13.624,2C11.139,2 9.124,4.015 9.124,6.5C9.124,7.572 9.499,8.556 10.124,9.329L10.124,6.491C10.124,4.561 11.691,3 13.624,3C15.553,3 17.124,4.563 17.124,6.491L17.124,9.329ZM19.623,30C23.766,30 27.124,26.415 27.124,22.5C27.124,22.5 27.124,24.813 27.124,22.5L27.124,16.502C27.124,15.672 26.459,15 25.624,15C24.796,15 24.124,15.671 24.124,16.502L24.124,17L23.124,17L23.124,14.506C23.124,13.674 22.459,13 21.624,13C20.796,13 20.124,13.672 20.124,14.506L20.124,16L19.124,16L19.124,13.506C19.124,12.674 18.459,12 17.624,12C16.796,12 16.124,12.672 16.124,13.506L16.124,17L15.124,17L15.124,6.505C15.124,5.674 14.459,5 13.624,5C12.796,5 12.124,5.667 12.124,6.505L12.124,17.8C10.066,15.6 7.356,13.179 6.245,14.296C5.158,15.389 7.96,18.401 11.872,24.983C13.634,27.949 15.865,30 19.623,30ZM28.124,22.5C28.124,27.194 24.319,31 19.624,31C16.512,31 13.226,29.547 10.965,25.428C7.702,19.483 3.528,15.583 5.516,13.596C6.937,12.174 9.169,13.538 11.124,15.367L11.124,6.508C11.124,5.115 12.244,4 13.624,4C15.015,4 16.124,5.123 16.124,6.508L16.124,11.498C16.542,11.185 17.062,11 17.624,11C18.707,11 19.619,11.677 19.97,12.628C20.411,12.238 20.99,12 21.624,12C23.015,12 24.124,13.118 24.124,14.498L24.124,14.511C24.542,14.199 25.062,14.014 25.624,14.014C27.015,14.014 28.124,15.134 28.124,16.514L28.124,22.5Z" style="fill:white;"/>
            </g>
        </g>
    </g>
</svg>
