<?xml version="1.0" encoding="UTF-8" standalone="no"?>
<!DOCTYPE svg PUBLIC "-//W3C//DTD SVG 1.1//EN" "http://www.w3.org/Graphics/SVG/1.1/DTD/svg11.dtd">
<svg width="100%" height="100%" viewBox="0 0 30 30" version="1.1" xmlns="http://www.w3.org/2000/svg" xmlns:xlink="http://www.w3.org/1999/xlink" xml:space="preserve" xmlns:serif="http://www.serif.com/" style="fill-rule:evenodd;clip-rule:evenodd;stroke-linejoin:round;stroke-miterlimit:2;">
    <g transform="matrix(1,0,0,1,-283,-173)">
        <g transform="matrix(0.982688,0,0,0.982688,122.233,3.85458)">
            <g id="bonus" transform="matrix(0.982432,0,0,0.982432,163.167,171.012)">
                <path d="M16.007,20L11.601,31.477L9.876,27.601L6,29.327L10.353,17.987C8.323,16.337 7.026,13.82 7.026,11C7.026,6.029 11.055,2 16.026,2C20.997,2 25.026,6.029 25.026,11C25.026,13.82 23.729,16.337 21.699,17.987L26.052,29.327L22.176,27.601L20.451,31.477L16.045,20L16.007,20ZM14.96,19.938L11.528,28.878L10.378,26.294L7.794,27.445L11.192,18.593C12.305,19.303 13.585,19.775 14.96,19.938ZM20.86,18.593L24.258,27.445L21.675,26.294L20.524,28.878L17.092,19.938C18.467,19.775 19.747,19.303 20.86,18.593ZM16.026,19C20.444,19 24.026,15.418 24.026,11C24.026,6.582 20.444,3 16.026,3C11.608,3 8.026,6.582 8.026,11C8.026,15.418 11.608,19 16.026,19ZM16.026,13.692L12.526,16L14.026,12L11.026,10L14.526,10L16.026,6L17.526,10L21.026,10L18.026,12L19.526,16L16.026,13.692Z" style="fill:white;"/>
            </g>
        </g>
    </g>
</svg>
