<?xml version="1.0" encoding="UTF-8" standalone="no"?>
<!DOCTYPE svg PUBLIC "-//W3C//DTD SVG 1.1//EN" "http://www.w3.org/Graphics/SVG/1.1/DTD/svg11.dtd">
<svg width="100%" height="100%" viewBox="0 0 30 30" version="1.1" xmlns="http://www.w3.org/2000/svg" xmlns:xlink="http://www.w3.org/1999/xlink" xml:space="preserve" xmlns:serif="http://www.serif.com/" style="fill-rule:evenodd;clip-rule:evenodd;stroke-linejoin:round;stroke-miterlimit:2;">
    <g transform="matrix(1,0,0,1,-283,-173)">
        <g transform="matrix(0.982688,0,0,0.982688,122.233,3.85458)">
            <g id="money" transform="matrix(1.01762,0,0,1.01762,156.104,163.321)">
                <path d="M21.643,16.5C20.877,16.581 20.146,16.781 19.47,17.082C19.38,16.981 19.131,16.7 19.072,16.634C18.785,16.312 18.421,16.469 18.42,16.47L18.194,16.593C17.962,16.731 17.858,17.011 17.943,17.267L18.137,17.853C17.529,18.297 16.992,18.834 16.547,19.443C16.421,19.401 16.062,19.282 15.978,19.254C15.567,19.118 15.331,19.436 15.331,19.437L15.197,19.657C15.065,19.892 15.114,20.187 15.316,20.366L15.776,20.775C15.475,21.452 15.275,22.182 15.194,22.949C15.063,22.976 14.694,23.051 14.608,23.069C14.185,23.157 14.139,23.551 14.139,23.552L14.133,23.809C14.136,24.079 14.327,24.31 14.591,24.364L15.194,24.488C15.275,25.254 15.475,25.985 15.776,26.661C15.675,26.751 15.395,27 15.329,27.059C15.006,27.346 15.164,27.71 15.164,27.711L15.288,27.937C15.425,28.169 15.706,28.273 15.961,28.188L16.547,27.993C16.992,28.602 17.529,29.139 18.137,29.584C18.095,29.71 17.976,30.069 17.948,30.153C17.813,30.563 18.131,30.8 18.132,30.8L18.352,30.934C18.587,31.066 18.882,31.017 19.061,30.815L19.47,30.355C20.146,30.655 20.877,30.856 21.643,30.937C21.67,31.068 21.746,31.437 21.764,31.523C21.852,31.946 22.245,31.992 22.246,31.992L22.504,31.998C22.773,31.995 23.004,31.804 23.058,31.54L23.182,30.937C23.949,30.856 24.68,30.655 25.356,30.355C25.445,30.455 25.695,30.736 25.753,30.802C26.041,31.124 26.404,30.967 26.405,30.967L26.631,30.843C26.863,30.706 26.968,30.425 26.883,30.17L26.688,29.584C27.297,29.139 27.833,28.602 28.278,27.993C28.404,28.035 28.764,28.155 28.848,28.183C29.258,28.318 29.494,28 29.495,27.999L29.629,27.779C29.761,27.544 29.711,27.249 29.51,27.07L29.049,26.661C29.35,25.985 29.55,25.254 29.631,24.488C29.763,24.461 30.131,24.385 30.218,24.367C30.641,24.279 30.686,23.886 30.686,23.885L30.692,23.627C30.689,23.358 30.499,23.127 30.235,23.073L29.631,22.949C29.55,22.182 29.35,21.451 29.049,20.775C29.15,20.686 29.431,20.436 29.496,20.378C29.819,20.09 29.662,19.726 29.661,19.725L29.538,19.5C29.4,19.268 29.12,19.163 28.864,19.248L28.278,19.443C27.833,18.834 27.296,18.297 26.688,17.853C26.73,17.727 26.849,17.367 26.877,17.283C27.013,16.873 26.695,16.637 26.694,16.636L26.474,16.502C26.239,16.37 25.944,16.42 25.765,16.621L25.356,17.082C24.679,16.781 23.948,16.581 23.182,16.5L23.058,15.896C23.003,15.63 22.769,15.438 22.497,15.438L22.328,15.438C22.056,15.438 21.822,15.63 21.767,15.896L21.643,16.5ZM22.413,17.868C25.641,17.868 28.263,20.489 28.263,23.718C28.263,26.947 25.641,29.568 22.413,29.568C19.184,29.568 16.563,26.947 16.563,23.718C16.563,20.489 19.184,17.868 22.413,17.868ZM19.869,21.718L18.264,23.439C18.117,23.596 18.117,23.84 18.264,23.998L19.869,25.718C20.023,25.884 20.282,25.893 20.448,25.739C20.613,25.584 20.622,25.325 20.468,25.16L19.123,23.718C19.123,23.718 20.468,22.277 20.468,22.277C20.622,22.112 20.613,21.852 20.448,21.698C20.282,21.544 20.023,21.553 19.869,21.718ZM22.042,25.582L23.471,22.14C23.55,21.95 23.46,21.732 23.27,21.654C23.08,21.575 22.862,21.665 22.783,21.855L21.354,25.296C21.275,25.486 21.366,25.704 21.555,25.783C21.745,25.862 21.963,25.772 22.042,25.582ZM24.453,22.251L25.821,23.718C25.821,23.718 24.453,25.185 24.453,25.185C24.313,25.335 24.321,25.571 24.471,25.711C24.622,25.852 24.858,25.843 24.998,25.693L26.603,23.972C26.736,23.829 26.736,23.607 26.603,23.464L24.998,21.744C24.858,21.593 24.622,21.585 24.471,21.725C24.321,21.865 24.313,22.101 24.453,22.251Z" style="fill:white;"/>
            </g>
        </g>
    </g>
</svg>
