<?xml version="1.0" encoding="UTF-8" standalone="no"?>
<!DOCTYPE svg PUBLIC "-//W3C//DTD SVG 1.1//EN" "http://www.w3.org/Graphics/SVG/1.1/DTD/svg11.dtd">
<svg width="100%" height="100%" viewBox="0 0 10 6" version="1.1" xmlns="http://www.w3.org/2000/svg" xmlns:xlink="http://www.w3.org/1999/xlink" xml:space="preserve" xmlns:serif="http://www.serif.com/" style="fill-rule:evenodd;clip-rule:evenodd;stroke-linejoin:round;stroke-miterlimit:2;">
    <g transform="matrix(1,0,0,1,-293,-185)">
        <g transform="matrix(0.982688,0,0,0.982688,122.233,3.85458)">
            <g transform="matrix(1.01762,0,0,1.01762,-17.2497,-134.32)">
                <path d="M189.904,313.664L188.146,315.901C188.005,316.08 188.005,316.331 188.146,316.51L189.904,318.748C190.072,318.961 190.382,318.998 190.595,318.831C190.809,318.663 190.846,318.353 190.678,318.139L189.159,316.206C189.159,316.206 190.678,314.272 190.678,314.272C190.846,314.059 190.809,313.749 190.595,313.581C190.382,313.413 190.072,313.45 189.904,313.664ZM192.39,318.591L193.955,314.116C194.037,313.883 193.914,313.627 193.68,313.546C193.447,313.464 193.192,313.587 193.11,313.82L191.544,318.295C191.463,318.529 191.586,318.784 191.819,318.866C192.052,318.947 192.308,318.824 192.39,318.591ZM194.931,314.245L196.472,316.206C196.472,316.206 194.931,318.167 194.931,318.167C194.779,318.361 194.813,318.643 195.007,318.795C195.201,318.948 195.483,318.914 195.635,318.72L197.394,316.482C197.521,316.32 197.521,316.091 197.394,315.929L195.635,313.692C195.483,313.497 195.201,313.463 195.007,313.616C194.813,313.769 194.779,314.05 194.931,314.245Z" style="fill:rgb(64,58,68);"/>
            </g>
        </g>
    </g>
</svg>
