<?xml version="1.0" encoding="UTF-8" standalone="no"?>
<!DOCTYPE svg PUBLIC "-//W3C//DTD SVG 1.1//EN" "http://www.w3.org/Graphics/SVG/1.1/DTD/svg11.dtd">
<svg width="100%" height="100%" viewBox="0 0 30 30" version="1.1" xmlns="http://www.w3.org/2000/svg" xmlns:xlink="http://www.w3.org/1999/xlink" xml:space="preserve" xmlns:serif="http://www.serif.com/" style="fill-rule:evenodd;clip-rule:evenodd;stroke-linejoin:round;stroke-miterlimit:2;">
    <g transform="matrix(1,0,0,1,-283,-173)">
        <g transform="matrix(0.982688,0,0,0.982688,122.233,3.85458)">
            <g id="multi_x10" transform="matrix(1.01762,0,0,1.01762,15.7983,148.936)">
                <path d="M169.292,48.357L169.29,48.351C169.325,48.283 169.375,48.159 169.262,48.159L168.976,48.159C168.816,48.159 168.665,48.235 168.571,48.364C168.476,48.493 168.448,48.66 168.496,48.812L168.854,49.95C168.921,50.163 168.85,50.385 168.67,50.516C168.67,50.516 168.669,50.516 168.669,50.517C168.493,50.645 168.264,50.647 168.09,50.519L164.827,48.18L164.823,48.193C164.816,48.172 164.796,48.159 164.759,48.159L164.691,48.159C164.463,48.159 164.261,48.306 164.191,48.522C164.122,48.739 164.2,48.976 164.385,49.109L167.495,51.338C168.026,51.728 168.727,51.728 169.266,51.334C169.802,50.944 170.019,50.283 169.82,49.648L169.378,48.24L169.292,48.357ZM155.811,48.307L155.76,48.343C155.753,48.333 155.748,48.323 155.744,48.311C155.729,48.262 155.746,48.21 155.788,48.18L152.492,50.521C152.405,50.583 152.306,50.616 152.206,50.616C152.104,50.616 152.002,50.581 151.912,50.516C151.733,50.385 151.661,50.163 151.728,49.95L154.533,41.02C154.597,40.815 154.525,40.591 154.352,40.462L147.201,35.149C147.023,35.017 146.953,34.794 147.023,34.582C147.023,34.582 147.023,34.582 147.023,34.582C147.091,34.372 147.277,34.235 147.496,34.235L156.634,34.212C156.854,34.211 157.049,34.068 157.116,33.858L159.782,25.441C159.847,25.231 160.032,25.093 160.251,25.091C160.256,25.091 160.261,25.091 160.265,25.091C160.484,25.082 160.659,25.228 160.728,25.433L163.575,33.867C163.644,34.073 163.837,34.211 164.053,34.212L173.082,34.235C173.302,34.235 173.487,34.372 173.556,34.582C173.556,34.583 173.556,34.583 173.556,34.583C173.625,34.795 173.555,35.018 173.376,35.151L173.414,35.268L173.376,35.151L172.793,35.584C172.638,35.699 172.574,35.901 172.635,36.084C172.696,36.267 172.867,36.391 173.06,36.391L173.37,36.391C173.393,36.39 173.416,36.382 173.435,36.368L173.979,35.964C174.513,35.567 174.725,34.901 174.518,34.268L174.518,34.268C174.311,33.632 173.746,33.222 173.082,33.222L164.418,33.2L161.688,25.11C161.474,24.475 160.908,24.055 160.232,24.079C159.571,24.09 159.014,24.503 158.815,25.139L156.262,33.2L147.495,33.222C146.832,33.222 146.268,33.632 146.061,34.267C145.852,34.901 146.065,35.568 146.599,35.963L153.459,41.06L150.763,49.646C150.562,50.281 150.779,50.943 151.316,51.334C151.316,51.335 151.317,51.335 151.317,51.335C151.587,51.531 151.897,51.629 152.206,51.629C152.514,51.629 152.82,51.533 153.086,51.34C153.085,51.341 154.934,50.028 156.174,49.148C156.367,49.01 156.449,48.764 156.377,48.538C156.305,48.312 156.096,48.159 155.858,48.159C155.858,48.159 155.858,48.159 155.858,48.159C155.767,48.159 155.783,48.24 155.811,48.307ZM172.492,41.617C172.492,42.296 172.42,42.886 172.278,43.386C172.135,43.886 171.938,44.3 171.686,44.628C171.434,44.956 171.137,45.2 170.795,45.358C170.454,45.516 170.084,45.595 169.685,45.595C169.287,45.595 168.919,45.516 168.581,45.358C168.243,45.2 167.949,44.956 167.699,44.628C167.449,44.3 167.253,43.886 167.113,43.386C166.972,42.886 166.902,42.296 166.902,41.617C166.902,40.937 166.972,40.348 167.113,39.85C167.253,39.352 167.449,38.94 167.699,38.614C167.949,38.288 168.243,38.044 168.581,37.884C168.919,37.724 169.287,37.644 169.685,37.644C170.084,37.644 170.454,37.724 170.795,37.884C171.137,38.044 171.434,38.288 171.686,38.614C171.938,38.94 172.135,39.352 172.278,39.85C172.42,40.348 172.492,40.937 172.492,41.617ZM156.841,42.513L155.224,39.695L156.654,39.695C156.759,39.695 156.836,39.709 156.885,39.739C156.934,39.768 156.978,39.816 157.017,39.882L157.937,41.663C157.957,41.617 157.978,41.569 158.002,41.52C158.025,41.471 158.052,41.421 158.084,41.371L158.716,39.906C158.802,39.765 158.912,39.695 159.044,39.695L160.41,39.695L158.787,42.437L160.48,45.513L159.05,45.513C158.945,45.513 158.859,45.485 158.793,45.428C158.726,45.371 158.673,45.31 158.634,45.244L157.709,43.398C157.693,43.441 157.676,43.482 157.659,43.521C157.641,43.56 157.623,43.595 157.603,43.626L156.871,45.244C156.828,45.31 156.776,45.371 156.715,45.428C156.655,45.485 156.576,45.513 156.478,45.513L155.154,45.513L156.841,42.513ZM161.957,44.458L163.462,44.458L163.462,40.099C163.462,39.919 163.468,39.732 163.48,39.537L162.466,40.41C162.4,40.464 162.334,40.497 162.267,40.509C162.201,40.521 162.138,40.521 162.08,40.509C162.021,40.497 161.969,40.477 161.924,40.448C161.879,40.418 161.845,40.388 161.822,40.357L161.377,39.747L163.714,37.72L164.875,37.72L164.875,44.458L166.205,44.458L166.205,45.513L161.957,45.513L161.957,44.458ZM171.033,41.617C171.033,41.062 170.995,40.604 170.919,40.243C170.842,39.881 170.742,39.594 170.617,39.381C170.492,39.168 170.348,39.02 170.186,38.936C170.024,38.852 169.857,38.81 169.685,38.81C169.513,38.81 169.348,38.852 169.19,38.936C169.032,39.02 168.891,39.168 168.768,39.381C168.645,39.594 168.546,39.881 168.472,40.243C168.398,40.604 168.361,41.062 168.361,41.617C168.361,42.175 168.398,42.635 168.472,42.996C168.546,43.358 168.645,43.645 168.768,43.858C168.891,44.071 169.032,44.219 169.19,44.303C169.348,44.387 169.513,44.429 169.685,44.429C169.857,44.429 170.024,44.387 170.186,44.303C170.348,44.219 170.492,44.071 170.617,43.858C170.742,43.645 170.842,43.358 170.919,42.996C170.995,42.635 171.033,42.175 171.033,41.617ZM164.444,33.277C164.446,33.283 164.448,33.288 164.449,33.293C164.45,33.298 164.451,33.303 164.451,33.308C164.45,33.297 164.448,33.287 164.444,33.277Z" style="fill:white;"/>
            </g>
        </g>
    </g>
</svg>
