<?xml version="1.0" encoding="UTF-8" standalone="no"?>
<!DOCTYPE svg PUBLIC "-//W3C//DTD SVG 1.1//EN" "http://www.w3.org/Graphics/SVG/1.1/DTD/svg11.dtd">
<svg width="100%" height="100%" viewBox="0 0 30 30" version="1.1" xmlns="http://www.w3.org/2000/svg" xmlns:xlink="http://www.w3.org/1999/xlink" xml:space="preserve" xmlns:serif="http://www.serif.com/" style="fill-rule:evenodd;clip-rule:evenodd;stroke-linejoin:round;stroke-miterlimit:2;">
    <g transform="matrix(1,0,0,1,-283,-173)">
        <g transform="matrix(0.982688,0,0,0.982688,122.233,3.85458)">
            <g id="multi_x2" transform="matrix(1.01762,0,0,1.01762,97.8504,148.934)">
                <path d="M88.66,48.357L88.658,48.351C88.693,48.283 88.743,48.159 88.631,48.159L88.345,48.159C88.184,48.159 88.034,48.235 87.939,48.364C87.844,48.493 87.817,48.66 87.865,48.812L88.222,49.95C88.289,50.163 88.218,50.385 88.038,50.516C88.038,50.516 88.038,50.516 88.037,50.517C87.861,50.645 87.633,50.647 87.458,50.519L84.196,48.18L84.192,48.193C84.184,48.172 84.165,48.159 84.127,48.159L84.059,48.159C83.831,48.159 83.63,48.306 83.56,48.522C83.49,48.739 83.569,48.976 83.754,49.109L86.863,51.338C87.394,51.728 88.095,51.728 88.634,51.334C89.17,50.944 89.387,50.283 89.189,49.648L88.746,48.24L88.66,48.357ZM75.179,48.307L75.129,48.343C75.122,48.333 75.116,48.323 75.112,48.311C75.097,48.262 75.115,48.21 75.156,48.18L71.86,50.521C71.774,50.583 71.675,50.616 71.574,50.616C71.472,50.616 71.37,50.581 71.28,50.516C71.101,50.385 71.03,50.163 71.097,49.95L73.901,41.02C73.966,40.815 73.893,40.591 73.72,40.462L66.57,35.149C66.391,35.017 66.322,34.794 66.391,34.582C66.391,34.582 66.391,34.582 66.391,34.582C66.46,34.372 66.645,34.235 66.865,34.235L76.003,34.212C76.223,34.211 76.418,34.068 76.484,33.858L79.15,25.441C79.216,25.231 79.401,25.093 79.62,25.091C79.625,25.091 79.629,25.091 79.634,25.091C79.853,25.082 80.028,25.228 80.097,25.433L82.944,33.867C83.013,34.073 83.205,34.211 83.422,34.212L92.451,34.235C92.67,34.235 92.855,34.372 92.924,34.582C92.924,34.583 92.924,34.583 92.924,34.583C92.993,34.795 92.923,35.018 92.744,35.151L92.783,35.268L92.744,35.151L92.161,35.584C92.006,35.699 91.943,35.901 92.003,36.084C92.064,36.267 92.235,36.391 92.428,36.391L92.738,36.391C92.762,36.39 92.785,36.382 92.803,36.368L93.348,35.964C93.881,35.567 94.093,34.901 93.886,34.268L93.886,34.268C93.679,33.632 93.115,33.222 92.451,33.222L83.787,33.2L81.056,25.11C80.842,24.475 80.277,24.055 79.601,24.079C78.94,24.09 78.383,24.503 78.184,25.139L75.63,33.2L66.863,33.222C66.201,33.222 65.637,33.632 65.429,34.267C65.221,34.901 65.433,35.568 65.967,35.963L72.828,41.06L70.131,49.646C69.931,50.281 70.148,50.943 70.684,51.334C70.685,51.335 70.685,51.335 70.685,51.335C70.956,51.531 71.266,51.629 71.574,51.629C71.882,51.629 72.189,51.533 72.454,51.34C72.453,51.341 74.303,50.028 75.542,49.148C75.736,49.01 75.818,48.764 75.746,48.538C75.674,48.312 75.464,48.159 75.227,48.159C75.227,48.159 75.227,48.159 75.227,48.159C75.136,48.159 75.151,48.24 75.179,48.307ZM79.251,42.513L77.634,39.695L79.063,39.695C79.169,39.695 79.246,39.709 79.295,39.739C79.344,39.768 79.388,39.816 79.427,39.882L80.347,41.663C80.366,41.617 80.388,41.569 80.411,41.52C80.434,41.471 80.462,41.421 80.493,41.371L81.126,39.906C81.212,39.765 81.321,39.695 81.454,39.695L82.819,39.695L81.196,42.437L82.889,45.513L81.46,45.513C81.354,45.513 81.268,45.485 81.202,45.428C81.136,45.371 81.083,45.31 81.044,45.244L80.118,43.398C80.102,43.441 80.086,43.482 80.068,43.521C80.051,43.56 80.032,43.595 80.013,43.626L79.28,45.244C79.237,45.31 79.185,45.371 79.125,45.428C79.064,45.485 78.985,45.513 78.888,45.513L77.563,45.513L79.251,42.513ZM86.136,37.644C86.495,37.644 86.822,37.698 87.117,37.805C87.412,37.913 87.664,38.064 87.873,38.259C88.082,38.455 88.244,38.69 88.359,38.965C88.474,39.241 88.532,39.544 88.532,39.876C88.532,40.162 88.491,40.426 88.409,40.67C88.327,40.914 88.218,41.147 88.081,41.368C87.944,41.588 87.784,41.803 87.6,42.012C87.417,42.221 87.223,42.431 87.02,42.642L85.368,44.371C85.544,44.316 85.72,44.274 85.895,44.245C86.071,44.215 86.235,44.201 86.388,44.201L88.151,44.201C88.3,44.201 88.42,44.244 88.512,44.33C88.603,44.415 88.649,44.529 88.649,44.669L88.649,45.513L83.388,45.513L83.388,45.038C83.388,44.949 83.406,44.852 83.443,44.748C83.48,44.645 83.546,44.548 83.639,44.458L85.901,42.132C86.093,41.933 86.262,41.744 86.408,41.564C86.555,41.384 86.678,41.205 86.777,41.028C86.877,40.85 86.952,40.67 87.003,40.489C87.054,40.307 87.079,40.117 87.079,39.917C87.079,39.558 86.989,39.287 86.809,39.103C86.63,38.919 86.376,38.828 86.048,38.828C85.907,38.828 85.778,38.849 85.661,38.892C85.544,38.935 85.438,38.994 85.345,39.068C85.251,39.142 85.171,39.23 85.104,39.331C85.038,39.433 84.987,39.542 84.952,39.66C84.889,39.839 84.805,39.956 84.697,40.011C84.59,40.066 84.442,40.078 84.255,40.046L83.505,39.917C83.563,39.538 83.669,39.207 83.821,38.924C83.973,38.641 84.164,38.405 84.392,38.215C84.621,38.026 84.884,37.883 85.181,37.788C85.477,37.692 85.796,37.644 86.136,37.644ZM83.813,33.277C83.815,33.283 83.816,33.288 83.817,33.293C83.818,33.298 83.819,33.303 83.819,33.308C83.819,33.297 83.816,33.287 83.813,33.277Z" style="fill:white;"/>
            </g>
        </g>
    </g>
</svg>
