<?xml version="1.0" encoding="UTF-8" standalone="no"?>
<!DOCTYPE svg PUBLIC "-//W3C//DTD SVG 1.1//EN" "http://www.w3.org/Graphics/SVG/1.1/DTD/svg11.dtd">
<svg width="100%" height="100%" viewBox="0 0 30 30" version="1.1" xmlns="http://www.w3.org/2000/svg" xmlns:xlink="http://www.w3.org/1999/xlink" xml:space="preserve" xmlns:serif="http://www.serif.com/" style="fill-rule:evenodd;clip-rule:evenodd;stroke-linejoin:round;stroke-miterlimit:2;">
    <g transform="matrix(1,0,0,1,-283,-173)">
        <g transform="matrix(0.982688,0,0,0.982688,122.233,3.85458)">
            <g id="multi_x5" transform="matrix(1.01762,0,0,1.01762,56.8243,148.936)">
                <path d="M128.976,48.357L128.974,48.351C129.009,48.283 129.059,48.159 128.947,48.159L128.66,48.159C128.5,48.159 128.35,48.235 128.255,48.364C128.16,48.493 128.132,48.66 128.18,48.812L128.538,49.95C128.605,50.163 128.534,50.385 128.354,50.516C128.354,50.516 128.353,50.516 128.353,50.517C128.177,50.645 127.949,50.647 127.774,50.519L124.512,48.18L124.508,48.193C124.5,48.172 124.48,48.159 124.443,48.159L124.375,48.159C124.147,48.159 123.945,48.306 123.876,48.522C123.806,48.739 123.884,48.976 124.069,49.109L127.179,51.338C127.71,51.728 128.411,51.728 128.95,51.334C129.486,50.944 129.703,50.283 129.504,49.648L129.062,48.24L128.976,48.357ZM115.495,48.307L115.444,48.343C115.437,48.333 115.432,48.323 115.428,48.311C115.413,48.262 115.43,48.21 115.472,48.18L112.176,50.521C112.09,50.583 111.99,50.616 111.89,50.616C111.788,50.616 111.686,50.581 111.596,50.516C111.417,50.385 111.345,50.163 111.413,49.95L114.217,41.02C114.282,40.815 114.209,40.591 114.036,40.462L106.885,35.149C106.707,35.017 106.637,34.794 106.707,34.582C106.707,34.582 106.707,34.582 106.707,34.582C106.776,34.372 106.961,34.235 107.18,34.235L116.318,34.212C116.539,34.211 116.733,34.068 116.8,33.858L119.466,25.441C119.532,25.231 119.716,25.093 119.936,25.091C119.94,25.091 119.945,25.091 119.95,25.091C120.168,25.082 120.343,25.228 120.413,25.433L123.259,33.867C123.329,34.073 123.521,34.211 123.738,34.212L132.767,34.235C132.986,34.235 133.171,34.372 133.24,34.582C133.24,34.583 133.24,34.583 133.24,34.583C133.309,34.795 133.239,35.018 133.06,35.151L133.099,35.268L133.06,35.151L132.477,35.584C132.322,35.699 132.258,35.901 132.319,36.084C132.38,36.267 132.551,36.391 132.744,36.391L133.054,36.391C133.078,36.39 133.1,36.382 133.119,36.368L133.664,35.964C134.197,35.567 134.409,34.901 134.202,34.268L134.202,34.268C133.995,33.632 133.43,33.222 132.767,33.222L124.103,33.2L121.372,25.11C121.158,24.475 120.593,24.055 119.916,24.079C119.256,24.09 118.698,24.503 118.5,25.139L115.946,33.2L107.179,33.222C106.517,33.222 105.952,33.632 105.745,34.267C105.537,34.901 105.749,35.568 106.283,35.963L113.143,41.06L110.447,49.646C110.247,50.281 110.463,50.943 111,51.334C111,51.335 111.001,51.335 111.001,51.335C111.271,51.531 111.581,51.629 111.89,51.629C112.198,51.629 112.504,51.533 112.77,51.34C112.769,51.341 114.619,50.028 115.858,49.148C116.051,49.01 116.134,48.764 116.062,48.538C115.99,48.312 115.78,48.159 115.543,48.159C115.543,48.159 115.543,48.159 115.543,48.159C115.451,48.159 115.467,48.24 115.495,48.307ZM128.508,38.324C128.508,38.523 128.444,38.686 128.315,38.813C128.186,38.94 127.973,39.003 127.676,39.003L125.684,39.003L125.426,40.533C125.735,40.47 126.031,40.439 126.317,40.439C126.715,40.439 127.068,40.5 127.374,40.623C127.681,40.746 127.938,40.915 128.145,41.13C128.352,41.345 128.508,41.597 128.613,41.886C128.719,42.175 128.772,42.486 128.772,42.818C128.772,43.232 128.7,43.61 128.558,43.952C128.415,44.293 128.217,44.585 127.963,44.828C127.709,45.07 127.407,45.258 127.058,45.393C126.708,45.528 126.326,45.595 125.912,45.595C125.67,45.595 125.441,45.57 125.224,45.519C125.007,45.468 124.803,45.4 124.612,45.314C124.42,45.228 124.243,45.128 124.081,45.015C123.919,44.902 123.774,44.783 123.645,44.658L124.078,44.06C124.176,43.931 124.297,43.867 124.442,43.867C124.535,43.867 124.627,43.895 124.717,43.952C124.807,44.008 124.909,44.072 125.025,44.142C125.14,44.212 125.275,44.276 125.429,44.332C125.583,44.389 125.772,44.417 125.994,44.417C126.225,44.417 126.425,44.378 126.595,44.3C126.765,44.222 126.906,44.115 127.02,43.978C127.133,43.841 127.218,43.68 127.275,43.495C127.331,43.309 127.36,43.107 127.36,42.888C127.36,42.474 127.244,42.154 127.014,41.927C126.783,41.701 126.449,41.587 126.012,41.587C125.836,41.587 125.658,41.604 125.479,41.637C125.299,41.67 125.119,41.72 124.94,41.787L124.067,41.546L124.699,37.732L128.508,37.732L128.508,38.324ZM119.567,42.513L117.949,39.695L119.379,39.695C119.485,39.695 119.562,39.709 119.611,39.739C119.659,39.768 119.703,39.816 119.742,39.882L120.662,41.663C120.682,41.617 120.703,41.569 120.727,41.52C120.75,41.471 120.778,41.421 120.809,41.371L121.442,39.906C121.528,39.765 121.637,39.695 121.77,39.695L123.135,39.695L121.512,42.437L123.205,45.513L121.776,45.513C121.67,45.513 121.584,45.485 121.518,45.428C121.451,45.371 121.399,45.31 121.36,45.244L120.434,43.398C120.418,43.441 120.402,43.482 120.384,43.521C120.366,43.56 120.348,43.595 120.328,43.626L119.596,45.244C119.553,45.31 119.501,45.371 119.441,45.428C119.38,45.485 119.301,45.513 119.203,45.513L117.879,45.513L119.567,42.513ZM124.129,33.277C124.13,33.283 124.132,33.288 124.133,33.293C124.134,33.298 124.135,33.303 124.135,33.308C124.134,33.297 124.132,33.287 124.129,33.277Z" style="fill:white;"/>
            </g>
        </g>
    </g>
</svg>
